<svg width="114" height="30" viewBox="0 0 114 30" fill="none" xmlns="http://www.w3.org/2000/svg">
<path d="M6.78785 10.8365H0V6.22346H18.851V10.8365H11.9277V28.9725H6.78785V10.8365Z" fill="#757679"></path>
<path d="M36.4 17.662V17.5942C36.4 13.6961 33.5403 10.4452 29.5068 10.4452C25.4732 10.4452 22.6813 13.6284 22.6813 17.5265V17.5942C22.6813 21.4923 25.5409 24.7433 29.567 24.7433C33.593 24.7433 36.3924 21.5601 36.3924 17.662M17.4512 17.662V17.5942C17.4512 11.13 22.5533 5.83213 29.5745 5.83213C36.5956 5.83213 41.6301 11.0622 41.6301 17.534V17.6017C41.6301 24.0735 36.5279 29.3638 29.5068 29.3638C22.4856 29.3638 17.4512 24.1337 17.4512 17.662Z" fill="#757679"></path>
<path d="M40.1025 6.22344H45.4681L50.179 21.6278L55.2811 6.15572H59.5706L64.6727 21.6278L69.3836 6.22344H74.6212L66.8476 29.1306H62.4979L57.3581 14.253L52.2258 29.1306H47.8687L40.1025 6.22344Z" fill="#757679"></path>
<path d="M75.3962 6.22346H92.5615V10.6785H80.3705V15.2915H91.0941V19.739H80.3705V24.5175H92.7196V28.9725H75.3962V6.22346Z" fill="#757679"></path>
<path d="M104.323 17.2708C106.761 17.2708 108.161 15.9689 108.161 14.05V13.9822C108.161 11.8375 106.664 10.7313 104.225 10.7313H99.2511V17.2633H104.323V17.2708ZM94.2468 6.22363H104.647C107.537 6.22363 109.779 7.03637 111.277 8.53391C112.541 9.79816 113.226 11.5892 113.226 13.7339V13.8016C113.226 17.474 111.247 19.7843 108.349 20.8529L113.903 28.9802H108.056L103.179 21.7032H99.2436V28.9802H94.2393V6.22363H94.2468Z" fill="#757679"></path>
<path d="M83.7197 0.0751953H86.6847V0.496614H84.1863V1.89633H86.4213V2.31774H84.1863V3.74756H86.7073V4.16898H83.7197V0.0751953Z" fill="#757679"></path>
<path d="M87.3691 3.57455L87.6551 3.23591C88.0841 3.61971 88.4904 3.81537 89.0623 3.81537C89.6343 3.81537 89.9729 3.52188 89.9729 3.12303V3.10798C89.9729 2.72419 89.7697 2.51348 88.9118 2.33288C87.9712 2.12969 87.5347 1.82115 87.5347 1.1514C87.5347 0.496694 88.0991 0.0225983 88.8817 0.0225983C89.4762 0.0225983 89.9052 0.195681 90.3191 0.526796L90.0482 0.880486C89.6644 0.571947 89.2881 0.436491 88.8667 0.436491C88.3324 0.436491 87.9937 0.729979 87.9937 1.09872V1.11377C87.9937 1.49756 88.2045 1.7158 89.1075 1.91146C90.0181 2.10712 90.4395 2.44576 90.4395 3.07036V3.08541C90.4395 3.78526 89.8525 4.24431 89.0398 4.24431C88.3926 4.24431 87.8583 4.02607 87.3691 3.58961" fill="#757679"></path>
<path d="M92.3735 0.504223H91.0039V0.0752792H94.2172V0.504223H92.8401V4.16906H92.3735V0.504223Z" fill="#757679"></path>
<path d="M94.9015 3.55957H94.3672V4.17665H94.9015V3.55957Z" fill="#757679"></path>
<path d="M97.6788 0.782633L96.9413 0.985817L96.7908 0.398841L97.8895 0.0451508H98.3937V4.16903H97.6788V0.782633Z" fill="#757679"></path>
<path d="M101.562 1.39219V1.37714C101.562 0.948192 101.231 0.624602 100.712 0.624602C100.193 0.624602 99.8992 0.963242 99.8992 1.38466V1.39971C99.8992 1.82866 100.223 2.12967 100.735 2.12967C101.246 2.12967 101.562 1.79103 101.562 1.39219ZM99.2746 3.74762L99.6659 3.19827C99.9744 3.46165 100.253 3.58206 100.599 3.58206C101.201 3.58206 101.562 3.04776 101.585 2.29523C101.382 2.54356 101.066 2.7317 100.629 2.7317C99.7562 2.7317 99.1768 2.21997 99.1768 1.42981V1.41476C99.1768 0.609552 99.7938 0 100.704 0C101.216 0 101.555 0.150507 101.841 0.428944C102.142 0.729957 102.337 1.18148 102.337 1.99421C102.337 3.31867 101.683 4.23676 100.584 4.23676C100.02 4.23676 99.6208 4.03358 99.2746 3.74762Z" fill="#757679"></path>
<path d="M104.843 2.66397V1.04602L103.496 2.66397H104.843ZM104.843 3.25095H102.781L102.646 2.73922L104.918 0.052681H105.535V2.66397H106.122V3.25847H105.535V4.17656H104.843V3.25847V3.25095Z" fill="#757679"></path>
<path d="M108.447 0.707407H106.385V0.0752792H109.268V0.624628L107.416 4.16906H106.611L108.447 0.707407Z" fill="#757679"></path>
<path d="M18.5578 0.158203H15.4423L15.0208 2.02449H12.1236L11.7022 0.158203H9.46715H7.22461L6.80319 2.02449H3.90593L3.48452 0.158203H0.369028L0.0078125 4.109H9.46715H18.919L18.5578 0.158203Z" fill="#C02336"></path>
</svg>