<svg xmlns="http://www.w3.org/2000/svg" xmlns:xlink="http://www.w3.org/1999/xlink" id="Dark_Gray_Logo_00000128460929230888794290000011538253926802876312_" x="0px" y="0px" viewBox="0 0 1918 455.2" style="enable-background:new 0 0 1918 455.2;" xml:space="preserve">
<style>
	.st0{fill:#6A6D70;}
	.st1{fill:#004E64;}
	.st2{fill:#00758A;}
	.st3{fill:#004E64;}
</style>

<g>
&#x9;<path class="st0" d="M29.1,123.7v212.2l260.8-39.4V163.1L29.1,123.7z M52.7,308.5V151.1l213.5,32.3v92.9L52.7,308.5z"></path>
&#x9;<path class="st1" d="M77.1,75.3v308.3l260.2-57.2l1.4-0.3V132.9L77.1,75.3z M100.7,354.3V104.7l214.4,47.1V307L100.7,354.3z"></path>
&#x9;<path class="st2" d="M125.9,31.6v395.8l261.2-74.1V105.7L125.9,31.6z M149.5,396.1V62.9l214,60.7v211.9L149.5,396.1z"></path>
&#x9;<path class="st3" d="M812.2,230.8c0,75.3-57.9,122-148.5,122H539.9v-244h123.8C754.3,108.8,812.2,155.5,812.2,230.8 M769.3,230.8   c0-56.5-44.6-85.4-108.8-85.4h-78.8v170.8h78.8C724.7,316.2,769.3,287.3,769.3,230.8"></path>
&#x9;<polygon class="st3" points="1186.9,108.8 1289.7,310 1392.6,108.8 1438.3,108.8 1311.7,352.9 1267.1,352.9 1140.5,108.8  "></polygon>
&#x9;<rect x="1504.4" y="108.8" class="st3" width="41.8" height="244"></rect>
&#x9;<path class="st3" d="M1757.2,104.9c-68.1-3-123.8,20.8-125.8,67.9c-2.1,48.5,58.9,65.7,124.1,74c59.4,7.7,89,15.4,87.9,39.8   c-1.1,24.7-30.8,37.4-83.7,35.1c-47.3-2-84.4-16.3-115.1-45.9l-18.2,35c34.5,28.2,79.3,43.8,130,46c80.6,3.5,126.4-26.8,128.4-71.8   c2.1-49.5-48.7-66.6-122.3-75.6c-51.7-6.3-91.1-12.4-90-37.5c1.1-26.4,46.3-33.6,83.9-31.7c38.5,2,71,13.2,94.4,34.8l17.7-34.2   C1841.2,120.3,1802.5,106.8,1757.2,104.9"></path>
&#x9;<path class="st3" d="M1102,352.8h46.4l-126.6-244h-44.6l-126.5,244h45.7l19.2-37.6h167.3L1102,352.8z M935.9,275.4l63.2-123.7   l63.2,123.7H935.9z"></path>
</g>
</svg>
